<svg width="452" height="307" viewBox="0 0 452 307" fill="none" xmlns="http://www.w3.org/2000/svg">
<g filter="url(#filter0_d_1_58)">
<path fill-rule="evenodd" clip-rule="evenodd" d="M163.465 84.8315C149.883 71.5253 132.537 62.7185 113.78 59.6059C95.0229 56.4932 75.7627 59.2249 58.6111 67.4311V124.475C63.2191 117.525 69.5563 111.895 77.0007 108.138C84.4452 104.381 92.74 102.627 101.068 103.048C109.396 103.47 117.471 106.052 124.498 110.541C131.525 115.031 137.262 121.271 141.145 128.651C144.837 112.42 152.507 97.3619 163.465 84.8315Z" fill="#131833"/>
</g>
<g filter="url(#filter1_d_1_58)">
<path fill-rule="evenodd" clip-rule="evenodd" d="M191.29 150.82C191.326 141.317 194.181 132.039 199.493 124.16C204.806 116.281 212.338 110.156 221.134 106.56C229.93 102.964 239.595 102.059 248.906 103.96C258.217 105.861 266.754 110.483 273.437 117.239L305.17 85.8545C292.254 72.7959 275.749 63.8711 257.75 60.2139C239.751 56.5566 221.071 58.332 204.083 65.3145C187.095 72.2969 172.567 84.1718 162.343 99.4297C152.119 114.688 146.661 132.64 146.662 151.007C146.604 163.704 141.519 175.862 132.52 184.82C123.52 193.778 111.34 198.808 98.6426 198.808C85.9448 198.808 73.7638 193.778 64.7646 184.82C55.7655 175.862 50.681 163.704 50.623 151.007V71.7588L50.6084 71.7695V47.6104C50.5744 35.7896 45.8642 24.4633 37.5059 16.1045C29.1475 7.74573 17.8208 3.03456 6 3V151.008C6 163.174 8.39611 175.22 13.0518 186.46C17.7074 197.7 24.5313 207.912 33.1338 216.515C41.7363 225.117 51.9488 231.941 63.1885 236.597C74.4282 241.252 86.4748 243.648 98.6406 243.648C110.806 243.648 122.853 241.252 134.093 236.597C145.333 231.941 155.545 225.117 164.147 216.515C172.75 207.912 179.574 197.7 184.229 186.46C188.885 175.22 191.281 163.174 191.281 151.008V150.82H191.289H191.29Z" fill="#131833"/>
</g>
<g filter="url(#filter2_d_1_58)">
<path fill-rule="evenodd" clip-rule="evenodd" d="M239.301 243.643C251.526 243.659 263.634 241.246 274.92 236.546C286.206 231.846 296.446 224.952 305.047 216.263L273.379 184.832C268.066 190.183 261.568 194.209 254.41 196.583C247.252 198.956 239.636 199.61 232.178 198.492C224.72 197.374 217.63 194.515 211.482 190.147C205.335 185.779 200.303 180.026 196.793 173.351C193.101 189.584 185.43 204.643 174.473 217.175C191.769 234.167 215.055 243.674 239.301 243.643Z" fill="#131833"/>
</g>
<g filter="url(#filter3_d_1_58)">
<path fill-rule="evenodd" clip-rule="evenodd" d="M379.965 243.64C392.191 243.657 404.299 241.244 415.586 236.543C426.873 231.842 437.113 224.946 445.713 216.255L414.049 184.823C407.345 191.577 398.786 196.186 389.457 198.067C380.129 199.948 370.451 199.014 361.654 195.385C352.857 191.756 345.338 185.595 340.049 177.684C334.76 169.773 331.939 160.47 331.947 150.954C331.955 141.438 334.791 132.139 340.094 124.237C345.396 116.335 352.925 110.187 361.729 106.573C370.532 102.959 380.212 102.041 389.537 103.937C398.862 105.833 407.413 110.458 414.106 117.223L445.834 85.8444C435.105 74.9972 421.864 66.9672 407.285 62.4684C392.707 57.9695 377.243 57.1405 362.268 60.0553C347.292 62.9701 333.268 69.5391 321.441 79.1774C309.615 88.8156 300.35 101.225 294.473 115.304C288.595 129.384 286.286 144.697 287.75 159.883C289.214 175.07 294.407 189.66 302.865 202.357C311.324 215.054 322.788 225.466 336.238 232.668C349.689 239.869 364.708 243.637 379.965 243.637V243.64Z" fill="#131833"/>
</g>
<g filter="url(#filter4_d_1_58)">
<path d="M103.783 289.087C101.38 289.087 99.3138 288.578 97.5832 287.56C95.8628 286.532 94.5394 285.107 93.613 283.284C92.6968 281.462 92.2387 279.365 92.2387 276.993C92.2387 274.591 92.7019 272.484 93.6283 270.672C94.5649 268.849 95.8933 267.429 97.6137 266.411C99.3342 265.383 101.38 264.869 103.752 264.869C105.798 264.869 107.59 265.241 109.127 265.984C110.664 266.727 111.881 267.77 112.777 269.114C113.673 270.458 114.166 272.036 114.258 273.848H108.119C107.946 272.677 107.488 271.735 106.745 271.023C106.012 270.3 105.05 269.939 103.859 269.939C102.851 269.939 101.971 270.213 101.217 270.763C100.474 271.303 99.8941 272.092 99.4767 273.13C99.0593 274.168 98.8506 275.426 98.8506 276.902C98.8506 278.398 99.0542 279.671 99.4614 280.719C99.8788 281.768 100.464 282.567 101.217 283.116C101.971 283.666 102.851 283.941 103.859 283.941C104.602 283.941 105.269 283.788 105.859 283.483C106.46 283.178 106.954 282.735 107.341 282.154C107.738 281.564 107.997 280.857 108.119 280.032H114.258C114.156 281.824 113.667 283.402 112.792 284.766C111.927 286.12 110.731 287.178 109.204 287.942C107.677 288.705 105.87 289.087 103.783 289.087ZM129.02 289.087C126.648 289.087 124.597 288.583 122.866 287.575C121.146 286.557 119.817 285.142 118.881 283.33C117.944 281.508 117.476 279.396 117.476 276.993C117.476 274.57 117.944 272.453 118.881 270.641C119.817 268.819 121.146 267.404 122.866 266.396C124.597 265.378 126.648 264.869 129.02 264.869C131.392 264.869 133.438 265.378 135.159 266.396C136.889 267.404 138.223 268.819 139.159 270.641C140.096 272.453 140.564 274.57 140.564 276.993C140.564 279.396 140.096 281.508 139.159 283.33C138.223 285.142 136.889 286.557 135.159 287.575C133.438 288.583 131.392 289.087 129.02 289.087ZM129.051 284.048C130.13 284.048 131.031 283.743 131.753 283.132C132.476 282.511 133.021 281.666 133.387 280.597C133.764 279.528 133.952 278.312 133.952 276.947C133.952 275.583 133.764 274.367 133.387 273.298C133.021 272.229 132.476 271.384 131.753 270.763C131.031 270.142 130.13 269.832 129.051 269.832C127.961 269.832 127.045 270.142 126.302 270.763C125.569 271.384 125.014 272.229 124.638 273.298C124.271 274.367 124.088 275.583 124.088 276.947C124.088 278.312 124.271 279.528 124.638 280.597C125.014 281.666 125.569 282.511 126.302 283.132C127.045 283.743 127.961 284.048 129.051 284.048ZM148.833 288.629L142.45 265.174H149.031L152.666 280.933H152.879L156.666 265.174H163.125L166.973 280.841H167.172L170.745 265.174H177.311L170.944 288.629H164.057L160.026 273.878H159.735L155.704 288.629H148.833ZM190.791 289.087C188.419 289.087 186.367 288.583 184.637 287.575C182.916 286.557 181.588 285.142 180.651 283.33C179.715 281.508 179.247 279.396 179.247 276.993C179.247 274.57 179.715 272.453 180.651 270.641C181.588 268.819 182.916 267.404 184.637 266.396C186.367 265.378 188.419 264.869 190.791 264.869C193.163 264.869 195.209 265.378 196.929 266.396C198.66 267.404 199.993 268.819 200.93 270.641C201.866 272.453 202.335 274.57 202.335 276.993C202.335 279.396 201.866 281.508 200.93 283.33C199.993 285.142 198.66 286.557 196.929 287.575C195.209 288.583 193.163 289.087 190.791 289.087ZM190.821 284.048C191.9 284.048 192.801 283.743 193.524 283.132C194.247 282.511 194.791 281.666 195.158 280.597C195.534 279.528 195.723 278.312 195.723 276.947C195.723 275.583 195.534 274.367 195.158 273.298C194.791 272.229 194.247 271.384 193.524 270.763C192.801 270.142 191.9 269.832 190.821 269.832C189.732 269.832 188.816 270.142 188.073 270.763C187.34 271.384 186.785 272.229 186.408 273.298C186.042 274.367 185.858 275.583 185.858 276.947C185.858 278.312 186.042 279.528 186.408 280.597C186.785 281.666 187.34 282.511 188.073 283.132C188.816 283.743 189.732 284.048 190.821 284.048ZM206.564 288.629V265.174H212.871V269.267H213.115C213.543 267.811 214.26 266.712 215.268 265.968C216.276 265.215 217.437 264.838 218.75 264.838C219.076 264.838 219.427 264.859 219.803 264.9C220.18 264.94 220.511 264.996 220.796 265.067V270.839C220.491 270.748 220.068 270.666 219.529 270.595C218.989 270.524 218.495 270.488 218.047 270.488C217.09 270.488 216.235 270.697 215.482 271.114C214.739 271.522 214.148 272.092 213.711 272.825C213.283 273.558 213.069 274.402 213.069 275.359V288.629H206.564ZM230.053 281.88L230.069 274.077H231.015L238.528 265.174H245.995L235.902 276.963H234.359L230.053 281.88ZM224.159 288.629V257.356H230.664V288.629H224.159ZM238.818 288.629L231.916 278.413L236.253 273.817L246.438 288.629H238.818ZM249.186 288.629V265.174H255.691V288.629H249.186ZM252.454 262.151C251.487 262.151 250.657 261.83 249.965 261.189C249.283 260.537 248.942 259.759 248.942 258.853C248.942 257.957 249.283 257.188 249.965 256.547C250.657 255.895 251.487 255.57 252.454 255.57C253.421 255.57 254.246 255.895 254.928 256.547C255.62 257.188 255.966 257.957 255.966 258.853C255.966 259.759 255.62 260.537 254.928 261.189C254.246 261.83 253.421 262.151 252.454 262.151ZM267.407 275.069V288.629H260.902V265.174H267.102V269.312H267.377C267.896 267.948 268.766 266.869 269.988 266.075C271.209 265.271 272.691 264.869 274.431 264.869C276.06 264.869 277.48 265.225 278.692 265.938C279.903 266.65 280.845 267.668 281.517 268.992C282.188 270.305 282.524 271.873 282.524 273.695V288.629H276.019V274.855C276.03 273.42 275.663 272.3 274.92 271.496C274.177 270.682 273.154 270.275 271.851 270.275C270.975 270.275 270.202 270.463 269.53 270.839C268.868 271.216 268.349 271.766 267.972 272.489C267.606 273.201 267.417 274.061 267.407 275.069ZM298.218 297.913C296.111 297.913 294.304 297.623 292.797 297.043C291.301 296.473 290.11 295.694 289.224 294.706C288.338 293.719 287.763 292.609 287.499 291.377L293.515 290.568C293.698 291.036 293.988 291.474 294.385 291.881C294.782 292.289 295.307 292.614 295.958 292.859C296.62 293.113 297.424 293.24 298.371 293.24C299.786 293.24 300.951 292.894 301.868 292.202C302.794 291.52 303.257 290.375 303.257 288.766V284.475H302.982C302.697 285.127 302.27 285.743 301.7 286.323C301.13 286.903 300.397 287.377 299.501 287.743C298.605 288.11 297.536 288.293 296.294 288.293C294.533 288.293 292.93 287.886 291.484 287.071C290.049 286.247 288.903 284.99 288.048 283.3C287.203 281.6 286.781 279.452 286.781 276.856C286.781 274.199 287.214 271.98 288.079 270.198C288.944 268.417 290.094 267.083 291.53 266.197C292.975 265.312 294.558 264.869 296.279 264.869C297.592 264.869 298.691 265.093 299.577 265.541C300.463 265.979 301.175 266.528 301.715 267.19C302.265 267.842 302.687 268.483 302.982 269.114H303.227V265.174H309.686V288.858C309.686 290.853 309.197 292.523 308.22 293.866C307.243 295.21 305.889 296.218 304.158 296.89C302.438 297.572 300.458 297.913 298.218 297.913ZM298.355 283.407C299.404 283.407 300.29 283.147 301.012 282.628C301.745 282.098 302.305 281.345 302.692 280.368C303.089 279.38 303.288 278.2 303.288 276.825C303.288 275.451 303.094 274.26 302.707 273.252C302.321 272.234 301.761 271.445 301.028 270.885C300.295 270.325 299.404 270.045 298.355 270.045C297.287 270.045 296.386 270.336 295.653 270.916C294.92 271.486 294.365 272.28 293.988 273.298C293.612 274.316 293.423 275.492 293.423 276.825C293.423 278.179 293.612 279.35 293.988 280.337C294.375 281.315 294.93 282.073 295.653 282.613C296.386 283.142 297.287 283.407 298.355 283.407Z" fill="#131833"/>
</g>
<defs>
<filter id="filter0_d_1_58" x="52.6111" y="55.3555" width="116.854" height="82.2953" filterUnits="userSpaceOnUse" color-interpolation-filters="sRGB">
<feFlood flood-opacity="0" result="BackgroundImageFix"/>
<feColorMatrix in="SourceAlpha" type="matrix" values="0 0 0 0 0 0 0 0 0 0 0 0 0 0 0 0 0 0 127 0" result="hardAlpha"/>
<feOffset dy="3"/>
<feGaussianBlur stdDeviation="3"/>
<feColorMatrix type="matrix" values="0 0 0 0 0 0 0 0 0 0 0 0 0 0 0 0 0 0 0.161 0"/>
<feBlend mode="normal" in2="BackgroundImageFix" result="effect1_dropShadow_1_58"/>
<feBlend mode="normal" in="SourceGraphic" in2="effect1_dropShadow_1_58" result="shape"/>
</filter>
<filter id="filter1_d_1_58" x="0" y="0" width="311.17" height="252.648" filterUnits="userSpaceOnUse" color-interpolation-filters="sRGB">
<feFlood flood-opacity="0" result="BackgroundImageFix"/>
<feColorMatrix in="SourceAlpha" type="matrix" values="0 0 0 0 0 0 0 0 0 0 0 0 0 0 0 0 0 0 127 0" result="hardAlpha"/>
<feOffset dy="3"/>
<feGaussianBlur stdDeviation="3"/>
<feColorMatrix type="matrix" values="0 0 0 0 0 0 0 0 0 0 0 0 0 0 0 0 0 0 0.161 0"/>
<feBlend mode="normal" in2="BackgroundImageFix" result="effect1_dropShadow_1_58"/>
<feBlend mode="normal" in="SourceGraphic" in2="effect1_dropShadow_1_58" result="shape"/>
</filter>
<filter id="filter2_d_1_58" x="168.473" y="170.351" width="142.574" height="82.2921" filterUnits="userSpaceOnUse" color-interpolation-filters="sRGB">
<feFlood flood-opacity="0" result="BackgroundImageFix"/>
<feColorMatrix in="SourceAlpha" type="matrix" values="0 0 0 0 0 0 0 0 0 0 0 0 0 0 0 0 0 0 127 0" result="hardAlpha"/>
<feOffset dy="3"/>
<feGaussianBlur stdDeviation="3"/>
<feColorMatrix type="matrix" values="0 0 0 0 0 0 0 0 0 0 0 0 0 0 0 0 0 0 0.161 0"/>
<feBlend mode="normal" in2="BackgroundImageFix" result="effect1_dropShadow_1_58"/>
<feBlend mode="normal" in="SourceGraphic" in2="effect1_dropShadow_1_58" result="shape"/>
</filter>
<filter id="filter3_d_1_58" x="281.323" y="55.3489" width="170.511" height="197.291" filterUnits="userSpaceOnUse" color-interpolation-filters="sRGB">
<feFlood flood-opacity="0" result="BackgroundImageFix"/>
<feColorMatrix in="SourceAlpha" type="matrix" values="0 0 0 0 0 0 0 0 0 0 0 0 0 0 0 0 0 0 127 0" result="hardAlpha"/>
<feOffset dy="3"/>
<feGaussianBlur stdDeviation="3"/>
<feColorMatrix type="matrix" values="0 0 0 0 0 0 0 0 0 0 0 0 0 0 0 0 0 0 0.161 0"/>
<feBlend mode="normal" in2="BackgroundImageFix" result="effect1_dropShadow_1_58"/>
<feBlend mode="normal" in="SourceGraphic" in2="effect1_dropShadow_1_58" result="shape"/>
</filter>
<filter id="filter4_d_1_58" x="86.2388" y="252.57" width="229.447" height="54.3434" filterUnits="userSpaceOnUse" color-interpolation-filters="sRGB">
<feFlood flood-opacity="0" result="BackgroundImageFix"/>
<feColorMatrix in="SourceAlpha" type="matrix" values="0 0 0 0 0 0 0 0 0 0 0 0 0 0 0 0 0 0 127 0" result="hardAlpha"/>
<feOffset dy="3"/>
<feGaussianBlur stdDeviation="3"/>
<feColorMatrix type="matrix" values="0 0 0 0 0 0 0 0 0 0 0 0 0 0 0 0 0 0 0.161 0"/>
<feBlend mode="normal" in2="BackgroundImageFix" result="effect1_dropShadow_1_58"/>
<feBlend mode="normal" in="SourceGraphic" in2="effect1_dropShadow_1_58" result="shape"/>
</filter>
</defs>
</svg>
