<svg width="623" height="251" viewBox="0 0 623 251" fill="none" xmlns="http://www.w3.org/2000/svg">
<path d="M78.6392 249.445C59.7622 242.689 57.9242 218.219 75.5932 208.907C76.85 208.178 78.2073 207.639 79.6212 207.307C80.3862 207.307 80.5622 205.373 80.3952 198.79L80.1792 190.273L76.7472 189.145C71.9069 187.397 67.5918 184.444 64.2092 180.566L61.2912 177.336L56.6272 178.928C54.0622 179.804 49.0472 181.56 45.4822 182.828L39.0012 185.142L39.2502 187.822C40.2582 198.688 30.6122 208.831 19.2702 208.831C-0.781784 208.831 -7.34478 182.822 10.0242 172.189C15.0302 169.124 25.0242 169.433 29.8082 172.8C34.2312 175.915 33.1782 176.009 46.3472 171.32L57.5062 167.347L57.8472 161.447C57.9997 157.806 58.8749 154.232 60.4219 150.932C61.9689 147.633 64.1568 144.674 66.8582 142.229L70.6482 138.822V51.5767L66.4692 47.4637C48.7692 30.0487 59.2862 1.28771 83.8022 0.0407134C110.055 -1.29529 123.356 30.5737 103.749 47.8327L100.389 50.7907V138.84L104.567 142.951L108.745 147.063H175.121L175.132 148.779C175.138 149.723 175.224 156.758 175.323 164.412C175.437 173.294 175.223 178.335 174.74 178.344C174.321 178.353 159.333 178.344 141.434 178.33L108.891 178.299L105.656 181.75C102.439 185.182 94.5562 189.767 91.8802 189.767C90.6002 189.767 90.4802 190.524 90.4802 198.35V206.933L94.3162 208.693C111.332 216.499 111.444 240.366 94.5032 248.567C89.5086 250.816 83.8565 251.129 78.6442 249.445H78.6392ZM98.6862 240.859C98.4883 240.487 98.2165 240.161 97.8875 239.898C97.5585 239.636 97.1793 239.444 96.7732 239.334C96.5454 239.356 96.3179 239.289 96.1387 239.147C95.9595 239.004 95.8428 238.798 95.8132 238.571C95.8132 238.1 91.8622 237.808 85.4842 237.808C75.5342 237.808 75.0842 237.877 73.2842 239.68C72.5393 240.335 71.9069 241.108 71.4122 241.968C71.4122 242.197 77.7632 242.384 85.5262 242.384C99.4492 242.384 99.6262 242.364 98.6872 240.859H98.6862ZM79.8092 233.043C79.8013 231.379 79.9587 229.718 80.2792 228.086C80.7082 226.486 80.4992 226.37 77.1582 226.37H73.5772L74.1522 228.848C74.4807 230.293 74.7145 231.757 74.8522 233.233C75.0522 236.238 75.0942 236.283 77.5072 236.283C79.6882 236.283 79.7952 236.132 79.8072 233.042L79.8092 233.043ZM87.4242 232.516C87.4242 230.444 87.7732 228.533 88.1992 228.269C89.6772 227.356 88.0822 226.369 85.1272 226.369H82.1582L82.5682 230.369C83.1372 235.928 83.3112 236.279 85.4942 236.279C87.2942 236.279 87.4242 236.034 87.4242 232.511V232.516ZM95.8122 232.516C95.8122 230.444 96.1612 228.533 96.5872 228.269C98.0872 227.342 96.4512 226.369 93.3872 226.369C90.5502 226.369 90.3312 226.512 90.7532 228.085C91.0739 229.717 91.2313 231.378 91.2232 233.042C91.2332 236.132 91.3402 236.283 93.5232 236.283C95.7562 236.283 95.8112 236.193 95.8112 232.515L95.8122 232.516ZM100.135 224.416C100.541 223.132 99.3472 222.165 92.8522 218.516C85.0752 214.148 85.7942 214.153 78.0922 218.406C70.8622 222.398 70.3032 222.845 70.8292 224.217C71.2942 225.429 99.7532 225.617 100.134 224.417L100.135 224.416ZM12.0072 198.096L12.4642 194.724L12.5792 198.346C12.6632 201.006 12.9972 201.968 13.8372 201.968C14.7732 201.968 14.9812 200.655 14.9812 194.724C14.9812 188.153 15.5812 186.124 16.8872 188.242C17.7532 189.642 21.0812 189.132 21.0812 187.598C21.2452 186.518 21.7853 185.531 22.6062 184.811C24.4542 183.138 24.5732 183.811 22.8842 186.387C21.2932 188.815 21.2942 188.816 27.1842 189.126L32.1412 189.387V179.477L25.0872 179.258L18.0332 179.039V183.05C18.0332 186.933 17.9942 187.006 16.8212 185.33C15.7642 183.821 15.0552 183.63 11.2922 183.83L6.97622 184.057V188.632C6.97622 192.432 7.18622 193.173 8.21822 193.004C9.25022 192.835 9.39722 193.359 9.07622 196.209C8.35922 202.572 11.1572 204.38 12.0092 198.104L12.0072 198.096ZM9.02922 190.148C9.04522 188.89 9.21522 188.467 9.40922 189.209C9.6036 189.96 9.59394 190.75 9.38122 191.497C9.17222 192.013 9.01422 191.406 9.02922 190.148ZM14.0662 181.989C14.5353 181.539 14.8382 180.944 14.9255 180.3C15.0128 179.656 14.8794 179.002 14.547 178.444C14.2146 177.885 13.7029 177.456 13.0953 177.226C12.4876 176.996 11.82 176.979 11.2012 177.177C10.1082 177.524 9.63922 178.325 9.63922 179.845C9.63922 182.645 12.1742 183.88 14.0622 181.992L14.0662 181.989ZM100.201 179.734C100.869 179.066 100.628 178.311 99.2102 176.625C96.8482 173.818 96.8612 173.134 99.2892 172.21C102.019 171.172 101.312 170.493 93.0722 166.244L85.8192 162.504L86.3092 164.887C86.5792 166.198 87.6762 170.13 88.7462 173.626L90.6932 179.982L92.4652 177.82L94.2362 175.658L96.2222 178.136C98.3982 180.851 98.8862 181.047 100.2 179.736L100.201 179.734ZM88.1852 177.693C88.1852 175.782 87.3762 175.13 86.2092 176.098C85.0092 177.093 83.1092 174.486 82.3812 170.853C81.9552 168.722 82.0982 168.414 83.5142 168.414C84.4462 168.414 85.1342 167.928 85.1342 167.27C85.1342 166.558 84.4142 166.126 83.2282 166.126C81.4282 166.126 81.3222 165.9 81.3222 161.892V157.658L85.3222 157.889C89.2222 158.114 89.3312 158.181 89.5642 160.598C89.9032 164.11 91.9942 163.946 91.9942 160.407V157.738H95.7242C99.1152 157.738 99.5002 157.92 99.9572 159.738C100.682 162.627 99.7452 166.122 98.2452 166.122C97.2722 166.122 97.3722 166.388 98.6882 167.31C100.966 168.91 101.722 168.255 102.335 164.169C104.717 148.286 84.6482 138.369 73.2182 149.784C71.3196 151.7 69.9008 154.039 69.0776 156.608C68.2543 159.177 68.0498 161.904 68.4808 164.568C68.9118 167.231 69.966 169.754 71.5576 171.933C73.1492 174.111 75.233 175.883 77.6392 177.103C82.5392 179.546 88.1812 179.858 88.1812 177.687L88.1852 177.693ZM76.9622 173.821C71.7722 170.062 71.3412 168.415 75.5462 168.415C78.9122 168.415 78.9902 168.472 79.8122 171.522C81.0242 176.016 80.5372 176.41 76.9642 173.822L76.9622 173.821ZM70.9822 164.313C69.7962 159.587 70.7092 158.139 75.0302 157.89L79.0302 157.659V166.127H75.2302C71.8662 166.127 71.3802 165.92 70.9762 164.313H70.9822ZM72.9332 154.45C72.9332 153.288 76.3502 149.937 78.8432 148.65C80.8562 147.615 80.9842 148.166 79.7562 152.587C79.0092 155.275 78.7812 155.447 75.9472 155.447C73.9672 155.447 72.9332 155.103 72.9332 154.447V154.45ZM82.0872 153.735C82.0872 152.199 84.6532 147.063 85.4172 147.063C86.1172 147.063 88.0242 150.695 88.5272 152.984L89.0692 155.451H85.5792C82.4652 155.452 82.0872 155.266 82.0892 153.736L82.0872 153.735ZM90.6632 151.83C90.2843 150.565 90.0975 149.25 90.1092 147.93C90.8582 147.181 98.0092 153.417 98.0722 154.875C98.0862 155.19 96.6112 155.447 94.7942 155.447H91.4942L90.6632 151.83ZM73.7012 33.0597V22.0027H71.4652C67.4402 22.0027 66.8352 23.4417 66.8352 33.0207C66.8352 41.9507 67.1082 42.7887 70.2672 43.5647C73.7672 44.4257 73.6992 44.6417 73.6992 33.0597H73.7012ZM69.1232 38.7767C69.1232 37.9297 69.6312 37.2517 70.2672 37.2517C70.9032 37.2517 71.4112 37.9297 71.4112 38.7767C71.4112 39.6237 70.9032 40.3017 70.2672 40.3017C69.6312 40.3017 69.1232 39.6257 69.1232 38.7767ZM69.4132 33.8567C69.2973 33.5504 69.2437 33.224 69.2556 32.8968C69.2674 32.5695 69.3445 32.2478 69.4822 31.9507C70.3702 30.5137 71.4112 31.1107 71.4112 33.0577C71.4112 35.1247 70.1012 35.6487 69.4112 33.8577L69.4132 33.8567ZM69.5052 28.1007C69.3848 27.8769 69.3209 27.627 69.3191 27.3728C69.3173 27.1187 69.3776 26.8679 69.4948 26.6424C69.612 26.4168 69.7826 26.2234 69.9916 26.0788C70.2006 25.9342 70.4418 25.8428 70.6942 25.8127C71.0892 25.8127 71.4122 26.4987 71.4122 27.3377C71.4122 28.9457 70.3032 29.3897 69.5062 28.1007H69.5052ZM91.0642 28.6887C91.3142 10.4617 91.3592 10.5617 82.9962 10.5617C74.6332 10.5617 75.0182 9.55172 75.1442 30.6057L75.2252 44.1677L83.0412 43.9507L90.8572 43.7337L91.0642 28.6887ZM77.5112 38.7767C77.5112 37.9297 78.0192 37.2517 78.6552 37.2517C79.2912 37.2517 79.7992 37.9297 79.7992 38.7767C79.7992 39.6237 79.2912 40.3017 78.6552 40.3017C78.0192 40.3017 77.5112 39.6257 77.5112 38.7767ZM82.0862 38.7767C82.0862 37.9297 82.5942 37.2517 83.2302 37.2517C83.8662 37.2517 84.3742 37.9297 84.3742 38.7767C84.3742 39.6237 83.8662 40.3017 83.2302 40.3017C82.5942 40.3017 82.0872 39.6257 82.0872 38.7767H82.0862ZM86.6612 38.7767C86.6612 37.9297 87.1692 37.2517 87.8052 37.2517C88.4412 37.2517 88.9492 37.9297 88.9492 38.7767C88.9492 39.6237 88.4412 40.3017 87.8052 40.3017C87.1692 40.3017 86.6622 39.6257 86.6622 38.7767H86.6612ZM77.5102 33.0577C77.5102 31.8717 77.9422 31.1517 78.6542 31.1517C79.3662 31.1517 79.7982 31.8717 79.7982 33.0577C79.7982 34.2437 79.3662 34.9637 78.6542 34.9637C77.9422 34.9637 77.5112 34.2457 77.5112 33.0597L77.5102 33.0577ZM82.0852 33.0577C82.0852 31.7697 82.4352 31.1407 83.0382 31.3417C83.3296 31.5232 83.57 31.776 83.7367 32.0761C83.9033 32.3762 83.9908 32.7139 83.9908 33.0572C83.9908 33.4005 83.9033 33.7382 83.7367 34.0383C83.57 34.3385 83.3296 34.5912 83.0382 34.7727C82.4362 34.9767 82.0872 34.3477 82.0872 33.0597L82.0852 33.0577ZM86.6602 33.0577C86.6602 31.7697 87.0102 31.1407 87.6132 31.3417C87.9046 31.5232 88.145 31.776 88.3117 32.0761C88.4783 32.3762 88.5658 32.7139 88.5658 33.0572C88.5658 33.4005 88.4783 33.7382 88.3117 34.0383C88.145 34.3385 87.9046 34.5912 87.6132 34.7727C87.0122 34.9767 86.6622 34.3477 86.6622 33.0597L86.6602 33.0577ZM77.5092 27.3387C77.5092 26.4917 78.0172 25.8137 78.6532 25.8137C79.2892 25.8137 79.7972 26.4917 79.7972 27.3387C79.7972 28.1857 79.2892 28.8637 78.6532 28.8637C78.0172 28.8637 77.5112 28.1877 77.5112 27.3407L77.5092 27.3387ZM82.0842 27.3387C82.0842 26.3557 82.4702 25.8157 83.0372 26.0037C83.3152 26.0992 83.5565 26.2791 83.7273 26.5184C83.8981 26.7576 83.9899 27.0443 83.9899 27.3382C83.9899 27.6322 83.8981 27.9188 83.7273 28.1581C83.5565 28.3973 83.3152 28.5772 83.0372 28.6727C82.4732 28.8637 82.0872 28.3237 82.0872 27.3407L82.0842 27.3387ZM86.6592 27.3387C86.6592 26.4997 87.0022 25.8137 87.4222 25.8137C87.8422 25.8137 88.1852 26.4997 88.1852 27.3387C88.1852 28.1777 87.8422 28.8637 87.4222 28.8637C87.0022 28.8637 86.6622 28.1767 86.6622 27.3407L86.6592 27.3387ZM77.5082 21.6197C77.5082 20.3317 77.8572 19.7027 78.4612 19.9037C78.7529 20.0852 78.9934 20.3379 79.1603 20.6382C79.3271 20.9384 79.4146 21.2762 79.4146 21.6197C79.4146 21.9632 79.3271 22.301 79.1603 22.6012C78.9934 22.9015 78.7529 23.1543 78.4612 23.3357C77.8612 23.5377 77.5112 22.9087 77.5112 21.6207L77.5082 21.6197ZM82.0832 21.6197C82.0832 20.3317 82.4332 19.7027 83.0362 19.9037C83.3279 20.0852 83.5684 20.3379 83.7353 20.6382C83.9021 20.9384 83.9896 21.2762 83.9896 21.6197C83.9896 21.9632 83.9021 22.301 83.7353 22.6012C83.5684 22.9015 83.3279 23.1543 83.0362 23.3357C82.4362 23.5377 82.0872 22.9087 82.0872 21.6207L82.0832 21.6197ZM86.6582 21.6197C86.6582 20.3317 87.0082 19.7027 87.6112 19.9037C87.9029 20.0852 88.1434 20.3379 88.3103 20.6382C88.4771 20.9384 88.5646 21.2762 88.5646 21.6197C88.5646 21.9632 88.4771 22.301 88.3103 22.6012C88.1434 22.9015 87.9029 23.1543 87.6112 23.3357C87.0122 23.5377 86.6622 22.9087 86.6622 21.6207L86.6582 21.6197ZM77.5072 15.9007C77.5072 15.0537 78.0152 14.3757 78.6512 14.3757C79.2872 14.3757 79.7952 15.0537 79.7952 15.9007C79.7952 16.7477 79.2872 17.4257 78.6512 17.4257C78.0152 17.4257 77.5112 16.7487 77.5112 15.9017L77.5072 15.9007ZM82.0822 15.9007C82.0822 15.0537 82.5902 14.3757 83.2262 14.3757C83.8622 14.3757 84.3702 15.0537 84.3702 15.9007C84.3702 16.7477 83.8622 17.4257 83.2262 17.4257C82.5902 17.4257 82.0872 16.7487 82.0872 15.9017L82.0822 15.9007ZM86.6572 15.9007C86.6572 14.9177 87.0432 14.3777 87.6102 14.5667C87.8882 14.6622 88.1295 14.8421 88.3003 15.0814C88.4711 15.3206 88.5629 15.6073 88.5629 15.9012C88.5629 16.1952 88.4711 16.4818 88.3003 16.7211C88.1295 16.9603 87.8882 17.1402 87.6102 17.2357C87.0482 17.4257 86.6622 16.8847 86.6622 15.9017L86.6572 15.9007ZM101.751 43.2707C104.551 42.2067 104.021 28.7707 101.151 28.1057C99.5432 27.7307 99.2082 27.1597 99.0102 24.4507C98.6902 20.0657 96.5762 19.9267 96.5762 24.2907C96.5762 26.4517 96.2422 27.3687 95.4322 27.4367C94.8032 27.4887 93.8592 27.5747 93.3322 27.6267C91.9752 27.7627 91.5552 42.6097 92.8862 43.4327C94.1362 44.2057 99.5492 44.1067 101.749 43.2707H101.751ZM94.2882 38.7767C94.2882 37.9297 94.7962 37.2517 95.4322 37.2517C96.0682 37.2517 96.5762 37.9297 96.5762 38.7767C96.5762 39.6237 96.0682 40.3017 95.4322 40.3017C94.7962 40.3017 94.2882 39.6257 94.2882 38.7767ZM98.8632 38.7767C98.8632 37.9297 99.3712 37.2517 100.007 37.2517C100.643 37.2517 101.151 37.9297 101.151 38.7767C101.151 39.6237 100.643 40.3017 100.007 40.3017C99.3712 40.3017 98.8632 39.6257 98.8632 38.7767ZM94.8012 34.4577C93.8422 33.4987 94.2932 31.1577 95.4362 31.1577C96.1482 31.1577 96.5802 31.8777 96.5802 33.0637C96.5802 34.9147 95.8372 35.4987 94.8012 34.4637V34.4577ZM98.8682 33.1237C98.8682 31.8417 99.2862 31.1537 100.068 31.1537C100.863 31.1537 101.183 31.7097 101.021 32.8097C100.662 35.2507 98.8712 35.5097 98.8712 33.1237H98.8682ZM587.824 189.454C582.038 187.56 579.466 186.015 575.554 182.082L571.725 178.233L530.702 178.656C508.14 178.889 485.902 179.277 481.294 179.519C467.6 180.254 453.947 177.465 441.638 171.419C434.869 168.088 427.912 163.146 427.912 161.668C427.912 161.141 430.473 157.521 433.604 153.624L439.296 146.539L443.732 149.805C456.253 159.023 475.353 162.975 491.532 159.697C506.498 156.665 512.905 150.132 512.905 137.907C512.905 124.419 506.573 119.66 482.477 115.038C457.399 110.227 450.913 107.873 444.037 101.087C436.32 93.4707 434.226 87.8867 434.102 74.6137C433.969 60.3797 436.861 52.3197 445.037 44.1437C460.016 29.1647 493.066 26.2227 516.37 37.7937C522.811 40.9937 529.715 45.1557 529.715 45.8427C529.715 47.4237 518.838 61.6157 518.015 61.1097C517.53 60.8097 515.654 59.5727 513.845 58.3537C497.584 47.4007 471.028 46.9007 459.675 57.3337C453.775 62.7557 451.804 75.8407 455.946 82.0987C460.391 88.8157 466.084 91.3457 486.328 95.5987C522.984 103.299 533.123 112.525 533.037 138.099L533.007 147.059H571.891L575.966 143.205C589.966 129.963 611.88 133.705 620.266 150.777C623.438 157.236 623.394 169.236 620.177 175.041C613.577 186.953 599.439 193.25 587.83 189.45L587.824 189.454ZM603.088 171.654C602.807 161.9 602.561 161.01 599.66 159.241C595.935 156.969 592.53 157.27 589.882 160.105C587.721 162.419 587.67 162.666 587.67 170.781V179.089H603.301L603.088 171.654ZM586.145 170C586.071 167.576 586.226 165.15 586.608 162.756C587.332 160.868 583.455 161.227 581.599 163.219C580.328 164.583 580.044 165.907 580.044 170.463V176.039H586.144L586.145 170ZM610.428 169.87C610.201 164.86 609.872 163.5 608.676 162.626C606.587 161.099 603.376 161.188 603.983 162.756C604.365 165.15 604.52 167.576 604.446 170V176.038H610.708L610.428 169.87ZM587.748 158.589C588.253 158.208 588.626 157.678 588.814 157.074C589.002 156.469 588.994 155.821 588.794 155.221C588.593 154.621 588.209 154.099 587.695 153.73C587.182 153.36 586.565 153.161 585.932 153.161C582.52 153.161 580.866 157.57 583.666 159.2C585.49 160.266 585.723 160.231 587.748 158.592V158.589ZM606.784 159.235C608.433 158.353 608.745 155.477 607.344 154.076C604.929 151.661 600.735 154.298 601.915 157.49C602.835 159.979 604.367 160.528 606.784 159.234V159.235ZM598.476 154.95C601.566 152.15 599.37 146.299 595.232 146.299C593.114 146.299 589.957 149.265 589.957 151.256C589.957 155.024 595.662 157.499 598.476 154.952V154.95ZM357.376 114.65V50.9767H316.196V31.9157H419.142V50.9767H377.964V178.329H357.374L357.376 114.65Z" fill="#131833"/>
<path d="M175.03 178.567L194.954 178.155L194.254 78.8547L230.675 157.87L243.844 158.076L279.028 76.7967L279.234 178.446L299.399 178.24L299.193 31.1157H280.674L237.463 129.473L193.333 32.4967L174.498 31.9397L175.03 178.567Z" fill="#131833" stroke="#131833" stroke-width="0.265"/>
</svg>
