<svg width="271" height="591" viewBox="0 0 271 591" fill="none" xmlns="http://www.w3.org/2000/svg">
<path d="M35.9738 590.827C30.8441 590.219 26.0906 587.829 22.5418 584.076C19.9601 581.374 18.12 578.051 17.1998 574.429C15.7578 569.454 15.5118 565.59 15.6248 549.755L15.7248 535.171H27.1108L27.3167 551.89C27.5057 567.239 27.5807 568.802 28.2347 570.964C29.5137 575.197 31.4737 577.736 34.8577 579.544C37.0078 580.693 42.6878 580.71 45.1448 579.575C48.5038 578.023 51.1268 574.419 52.2208 569.853C52.5568 568.453 52.7448 563.247 52.8838 551.534L53.0778 535.171L58.3658 535.071C61.9658 535.004 63.8108 535.103 64.1458 535.381C64.5458 535.716 64.6377 538.226 64.6357 549.352C64.6357 563.98 64.3288 569.233 63.2428 573.482C61.0628 582.004 55.0798 588.26 47.1937 590.26C43.4998 590.985 39.7208 591.175 35.9728 590.825L35.9738 590.827ZM73.9678 590.427C73.3418 589.801 73.3327 536.05 73.9587 535.427C74.6328 534.753 110.644 534.818 111.205 535.494C111.48 535.826 111.582 537.494 111.515 540.563L111.415 545.138L98.4307 545.316L85.4468 545.494V558.3L96.1178 558.478L106.789 558.656V567.905L96.0338 567.999L85.2788 568.093L85.1848 579.382L85.0908 590.671L79.7458 590.771C75.8897 590.842 74.2798 590.747 73.9658 590.433L73.9678 590.427ZM112.433 590.308C112.32 590.008 116.927 577.445 122.671 562.38L133.115 534.988L138.222 535.081L143.329 535.175L153.748 562.565C161.338 582.517 164.066 590.078 163.797 590.409C163.528 590.74 162.043 590.838 157.888 590.765L152.349 590.665L149.811 583.906L147.273 577.147H128.951L126.451 583.995L123.951 590.842H118.291C113.58 590.844 112.605 590.75 112.433 590.303V590.308ZM144.676 568.1C144.676 567.757 138.602 550.234 138.391 549.967C138.083 549.578 137.854 550.157 132.391 565.144L131.191 568.434H137.934C141.907 568.434 144.677 568.297 144.677 568.1H144.676ZM169.3 590.427C168.674 589.801 168.665 536.05 169.291 535.427C169.991 534.727 194.042 534.833 196.775 535.545C199.798 536.416 202.558 538.022 204.808 540.221C207.059 542.42 208.729 545.143 209.669 548.145C210.65 551.565 210.743 555.179 209.939 558.645C208.239 565.159 202.939 570.596 196.926 571.981C193.957 572.279 190.973 572.402 187.99 572.35L180.615 572.358L180.52 581.518L180.425 590.678L175.08 590.778C171.224 590.849 169.614 590.754 169.3 590.44V590.427ZM194.6 561.543C199.375 559.543 200.173 550.568 195.9 546.969C194.23 545.564 192.559 545.287 186.4 545.394L180.78 545.494L180.68 553.764L180.58 562.034H187.001C191.646 562.034 193.746 561.899 194.593 561.545L194.6 561.543ZM216.957 590.422C216.285 589.75 216.339 535.953 217.012 535.395C217.362 535.104 222.666 535.018 236.132 535.085L254.767 535.177V545.137L241.606 545.315L228.445 545.493L228.345 551.446L228.245 557.399L239.725 557.493L251.205 557.587V566.836L239.822 567.014L228.439 567.192L228.339 573.68L228.239 580.168L241.853 580.261L255.467 580.354V590.67L236.421 590.762C221.904 590.832 217.273 590.751 216.946 590.424L216.957 590.422ZM24.9567 515.29C24.1301 514.891 23.4107 514.3 22.8581 513.567C22.3056 512.834 21.9359 511.98 21.7798 511.075C21.6618 510.245 21.6128 455.752 21.6688 389.981L21.7688 270.398L22.5018 269.416C23.0032 268.778 23.5793 268.201 24.2178 267.7L25.1998 266.967H249.79L250.951 267.795C251.631 268.295 252.205 268.925 252.642 269.648C253.109 270.548 253.161 285.093 253.081 391.78L252.991 512.887L252.102 513.851C250.183 515.931 258.492 515.791 137.484 515.776C45.6328 515.765 25.8538 515.676 24.9598 515.29H24.9567ZM70.7508 490.693C74.3264 489.884 77.6824 488.305 80.5842 486.065C83.486 483.824 85.8635 480.978 87.5508 477.723C90.1058 472.839 89.8958 481.691 89.8958 378.762V285.976L87.0778 287.95C81.0836 292.213 73.9476 294.577 66.5941 294.738C59.2405 294.898 52.0081 292.847 45.8337 288.85C44.6891 288.156 43.5993 287.376 42.5738 286.516C42.391 286.264 42.129 286.081 41.8298 285.996C41.3438 285.996 41.4248 470.259 41.9118 472.323C43.024 475.918 44.7494 479.294 47.0118 482.302C53.1528 489.452 61.9218 492.553 70.7518 490.702L70.7508 490.693ZM138.451 490.352C140.474 489.824 142.438 489.093 144.313 488.168C148.811 485.919 152.502 482.332 154.88 477.9C157.737 472.352 157.48 482.1 157.48 378.413V285.636H109.105V377.982C109.105 480.982 108.88 472.104 111.625 477.367C114.077 482.332 118.155 486.308 123.181 488.633C127.956 490.825 133.308 491.428 138.451 490.353V490.352ZM211.729 489.843C217.671 488.278 222.829 485.059 225.293 481.38L226.669 479.323L226.769 419.741L226.869 360.159L225.904 357.159C224.879 354.105 223.254 351.287 221.124 348.869C218.995 346.452 216.404 344.485 213.504 343.083C210.184 341.277 206.429 340.426 202.655 340.625C198.742 340.513 194.872 341.457 191.45 343.357C187.226 345.749 183.708 349.213 181.251 353.4C178.625 358.457 178.822 353.1 178.822 419.395V479.036L180.222 481.196C183.072 485.606 188.998 488.975 196.378 490.382C201.49 491.041 206.676 490.859 211.73 489.844L211.729 489.843ZM205.029 335.762C210.646 335.088 215.849 332.466 219.735 328.354C224.037 323.985 226.578 318.183 226.872 312.058C227.165 305.933 225.191 299.915 221.327 295.154C217.737 290.863 212.869 287.834 207.434 286.509C202.869 285.61 198.151 285.881 193.719 287.297C182.619 291.165 175.502 302.49 177.019 313.882C177.837 320.028 179.819 323.999 184.328 328.511C188.066 332.537 193.104 335.116 198.556 335.796C200.697 336.191 202.893 336.18 205.03 335.763L205.029 335.762ZM39.5888 262.144C35.7319 261.536 32.1197 259.868 29.1544 257.328C26.1891 254.788 23.9871 251.475 22.7938 247.757C21.8694 244.786 21.6029 241.649 22.0129 238.564C22.4228 235.479 23.4994 232.521 25.1678 229.894C28.1942 225.428 32.7408 222.214 37.9608 220.851C40.8748 220.131 233.893 220.131 236.806 220.851C242.026 222.214 246.572 225.428 249.599 229.894C251.768 233.323 252.92 237.297 252.92 241.355C252.92 245.412 251.768 249.386 249.599 252.815C246.703 257.075 242.439 260.218 237.514 261.723C235.694 262.289 228.914 262.334 138.45 262.385C85.0388 262.415 40.5498 262.307 39.5878 262.145L39.5888 262.144ZM22.2588 213.991C15.5555 208.665 9.97025 202.067 5.82375 194.577C0.157748 183.935 -1.44179 171.595 1.32375 159.86C4.05375 149.01 15.5817 136.098 32.6657 124.755C43.6657 117.455 46.8348 116.497 65.8898 114.733C77.6838 113.641 85.5998 110.996 94.4058 105.205C97.4968 103.172 97.7238 102.935 98.7838 100.636C101.354 95.2259 102.179 89.1505 101.144 83.251C100.066 78.185 97.9208 74.489 91.0288 65.814C83.5688 56.425 81.8737 52.805 82.1357 46.82C82.0715 44.6154 82.6231 42.4365 83.7288 40.528C87.0048 33.748 93.6228 26.882 104.165 19.328C115.567 11.144 131.295 3.54401 142.304 0.874008C146.209 -0.0719917 150.648 -0.292992 151.364 0.423008C153.184 2.24301 149.724 7.12301 137.931 19.383C129.187 28.469 127.603 30.724 127.603 34.083C127.603 38.111 134.457 43.373 142.721 45.691C144.482 46.185 148.07 46.912 150.694 47.307C173.176 50.691 190.677 60.399 197.439 73.237C203.639 85.005 201.522 96.219 189.245 116.677C183.137 126.855 166.962 152.062 162.888 157.752C162.332 158.424 161.877 159.173 161.536 159.976C162.755 159.606 163.936 159.122 165.065 158.532C180.667 151.356 193.319 139.021 200.891 123.607C204.795 115.709 207.231 107.167 208.079 98.397L208.534 93.841L211.518 95.974C227.627 107.489 236.507 125.784 235.001 144.356C234.697 148.137 234.048 151.881 233.063 155.544C232.821 156.144 232.913 156.144 234.639 155.485C237.418 154.433 239.888 152.7 241.822 150.445C243.757 148.189 245.094 145.485 245.712 142.578C246.266 138.858 246.044 135.062 245.06 131.432C244.764 130.708 244.562 129.949 244.46 129.174C244.719 128.915 248.181 131.02 251.099 133.21C257.678 138.131 262.92 144.621 266.346 152.088C269.773 159.556 271.275 167.762 270.715 175.959C270.156 184.155 267.552 192.081 263.143 199.014C258.734 205.946 252.658 211.664 245.472 215.645L242.931 216.979H25.9977L22.2588 213.991ZM174.5 197.414C181.74 195.535 187.4 192.135 191.082 187.445C193.433 184.453 194.912 181.511 197.641 174.401C202.284 162.301 206.175 155.557 213.081 147.639C213.799 146.907 214.426 146.093 214.951 145.212C214.411 144.672 206.761 149.996 203.104 153.458C197.973 158.315 192.516 165.745 186.166 176.522C181.886 183.785 180.014 186.077 175.802 189.209C171.193 192.636 167.18 194.255 157.749 196.493C156.386 196.817 156.529 197.328 158.105 197.76C160.44 198.4 161.112 198.445 166.375 198.313C169.109 198.342 171.838 198.04 174.5 197.413V197.414ZM30.7998 165.13C34.6488 154.369 42.8998 145.804 55.2138 139.772C61.5315 136.724 68.1738 134.401 75.0138 132.846C85.4138 130.234 89.6998 128.331 95.3778 123.812C98.4328 121.381 103.478 115.552 102.962 115.041C101.512 115.404 100.099 115.903 98.7428 116.532C96.5158 117.445 91.7328 119.273 88.1138 120.592C82.0248 122.812 79.2138 123.7 63.9248 128.244C53.5458 131.328 47.9798 134.219 42.5368 139.354C36.1188 145.409 31.6368 153.933 29.7468 163.692C28.9818 167.638 28.9308 168.253 29.3718 168.253C30.0074 167.293 30.4882 166.239 30.7968 165.129L30.7998 165.13ZM162.7 124.91C166.166 121.934 169.275 118.567 171.965 114.874C179.913 103.095 181.944 88.461 177.11 77.8C173.949 70.828 168.124 65.03 160.424 61.193C157.412 59.693 153.247 58.193 152.943 58.493C153.657 59.5714 154.517 60.5456 155.499 61.388C162.042 67.8721 166.635 76.0624 168.755 85.0273C170.874 93.9922 170.436 103.372 167.489 112.1C166.021 116.204 164.094 120.129 161.745 123.8C159.694 126.82 159.939 127.1 162.701 124.906L162.7 124.91Z" fill="#131833"/>
</svg>
